<?xml version="1.0" encoding="UTF-8" standalone="no"?>
<!-- Created with Inkscape (http://www.inkscape.org/) -->

<svg
   xmlns:dc="http://purl.org/dc/elements/1.1/"
   xmlns:cc="http://creativecommons.org/ns#"
   xmlns:rdf="http://www.w3.org/1999/02/22-rdf-syntax-ns#"
   xmlns:svg="http://www.w3.org/2000/svg"
   xmlns="http://www.w3.org/2000/svg"
   xmlns:xlink="http://www.w3.org/1999/xlink"
   xmlns:sodipodi="http://sodipodi.sourceforge.net/DTD/sodipodi-0.dtd"
   xmlns:inkscape="http://www.inkscape.org/namespaces/inkscape"
   width="210mm"
   height="297mm"
   viewBox="0 0 210 297"
   version="1.1"
   id="svg8"
   inkscape:version="0.92.2 5c3e80d, 2017-08-06"
   sodipodi:docname="game03_2.svg">
  <defs
     id="defs2" />
  <sodipodi:namedview
     id="base"
     pagecolor="#ffffff"
     bordercolor="#666666"
     borderopacity="1.0"
     inkscape:pageopacity="0.0"
     inkscape:pageshadow="2"
     inkscape:zoom="1.7122321"
     inkscape:cx="249.09005"
     inkscape:cy="887.05846"
     inkscape:document-units="mm"
     inkscape:current-layer="layer1"
     showgrid="true"
     inkscape:window-width="1920"
     inkscape:window-height="1020"
     inkscape:window-x="0"
     inkscape:window-y="27"
     inkscape:window-maximized="1">
    <inkscape:grid
       type="xygrid"
       id="grid10" />
  </sodipodi:namedview>
  <metadata
     id="metadata5">
    <rdf:RDF>
      <cc:Work
         rdf:about="">
        <dc:format>image/svg+xml</dc:format>
        <dc:type
           rdf:resource="http://purl.org/dc/dcmitype/StillImage" />
        <dc:title />
      </cc:Work>
    </rdf:RDF>
  </metadata>
  <g
     inkscape:label="Layer 1"
     inkscape:groupmode="layer"
     id="layer1">
    <g
       id="g3916"
       style=""
       inkscape:export-xdpi="96"
       inkscape:export-ydpi="96">
      <rect
         inkscape:tile-y0="42.867707"
         inkscape:tile-x0="9.1281251"
         inkscape:tile-h="17.462499"
         inkscape:tile-w="17.462499"
         inkscape:tile-cy="51.598957"
         inkscape:tile-cx="17.859375"
         y="43"
         x="9.260417"
         height="17.197916"
         width="17.197916"
         id="rect3703"
         style="fill:none;fill-opacity:1;" />
      <use
         id="use3789"
         xlink:href="#rect3703"
         inkscape:tiled-clone-of="#rect3703"
         y="0"
         x="0"
         style="" />
      <use
         id="use3791"
         transform="translate(0,17.462499)"
         xlink:href="#rect3703"
         inkscape:tiled-clone-of="#rect3703"
         y="0"
         x="0"
         style="" />
      <use
         id="use3793"
         transform="translate(0,34.924998)"
         xlink:href="#rect3703"
         inkscape:tiled-clone-of="#rect3703"
         y="0"
         x="0"
         style="" />
      <use
         id="use3795"
         transform="translate(0,52.387497)"
         xlink:href="#rect3703"
         inkscape:tiled-clone-of="#rect3703"
         y="0"
         x="0"
         style="" />
      <use
         id="use3797"
         transform="translate(0,69.849996)"
         xlink:href="#rect3703"
         inkscape:tiled-clone-of="#rect3703"
         y="0"
         x="0"
         style="" />
      <use
         id="use3799"
         transform="translate(0,87.312495)"
         xlink:href="#rect3703"
         inkscape:tiled-clone-of="#rect3703"
         y="0"
         x="0"
         style="" />
      <use
         id="use3801"
         transform="translate(17.462499)"
         xlink:href="#rect3703"
         inkscape:tiled-clone-of="#rect3703"
         y="0"
         x="0"
         style="" />
      <use
         id="use3803"
         transform="translate(17.462499,17.462499)"
         xlink:href="#rect3703"
         inkscape:tiled-clone-of="#rect3703"
         y="0"
         x="0"
         style="" />
      <use
         id="use3805"
         transform="translate(17.462499,34.924998)"
         xlink:href="#rect3703"
         inkscape:tiled-clone-of="#rect3703"
         y="0"
         x="0"
         style="" />
      <use
         id="use3807"
         transform="translate(17.462499,52.387497)"
         xlink:href="#rect3703"
         inkscape:tiled-clone-of="#rect3703"
         y="0"
         x="0"
         style="" />
      <use
         id="use3809"
         transform="translate(17.462499,69.849996)"
         xlink:href="#rect3703"
         inkscape:tiled-clone-of="#rect3703"
         y="0"
         x="0"
         style="" />
      <use
         id="use3811"
         transform="translate(17.462499,87.312495)"
         xlink:href="#rect3703"
         inkscape:tiled-clone-of="#rect3703"
         y="0"
         x="0"
         style="" />
      <use
         id="use3813"
         transform="translate(34.924998)"
         xlink:href="#rect3703"
         inkscape:tiled-clone-of="#rect3703"
         y="0"
         x="0"
         style="" />
      <use
         id="use3815"
         transform="translate(34.924998,17.462499)"
         xlink:href="#rect3703"
         inkscape:tiled-clone-of="#rect3703"
         y="0"
         x="0"
         style="" />
      <use
         id="use3817"
         transform="translate(34.924998,34.924998)"
         xlink:href="#rect3703"
         inkscape:tiled-clone-of="#rect3703"
         y="0"
         x="0"
         style="" />
      <use
         id="use3819"
         transform="translate(34.924998,52.387497)"
         xlink:href="#rect3703"
         inkscape:tiled-clone-of="#rect3703"
         y="0"
         x="0"
         style="" />
      <use
         id="use3821"
         transform="translate(34.924998,69.849996)"
         xlink:href="#rect3703"
         inkscape:tiled-clone-of="#rect3703"
         y="0"
         x="0"
         style="" />
      <use
         id="use3823"
         transform="translate(34.924998,87.312495)"
         xlink:href="#rect3703"
         inkscape:tiled-clone-of="#rect3703"
         y="0"
         x="0"
         style="" />
      <use
         id="use3825"
         transform="translate(52.387497)"
         xlink:href="#rect3703"
         inkscape:tiled-clone-of="#rect3703"
         y="0"
         x="0"
         style="" />
      <use
         id="use3827"
         transform="translate(52.387497,17.462499)"
         xlink:href="#rect3703"
         inkscape:tiled-clone-of="#rect3703"
         y="0"
         x="0"
         style="" />
      <use
         id="use3829"
         transform="translate(52.387497,34.924998)"
         xlink:href="#rect3703"
         inkscape:tiled-clone-of="#rect3703"
         y="0"
         x="0"
         style="" />
      <use
         id="use3831"
         transform="translate(52.387497,52.387497)"
         xlink:href="#rect3703"
         inkscape:tiled-clone-of="#rect3703"
         y="0"
         x="0"
         style="" />
      <use
         id="use3833"
         transform="translate(52.387497,69.849996)"
         xlink:href="#rect3703"
         inkscape:tiled-clone-of="#rect3703"
         y="0"
         x="0"
         style="" />
      <use
         id="use3835"
         transform="translate(52.387497,87.312495)"
         xlink:href="#rect3703"
         inkscape:tiled-clone-of="#rect3703"
         y="0"
         x="0"
         style="" />
      <use
         id="use3837"
         transform="translate(69.849996)"
         xlink:href="#rect3703"
         inkscape:tiled-clone-of="#rect3703"
         y="0"
         x="0"
         style="" />
      <use
         id="use3839"
         transform="translate(69.849996,17.462499)"
         xlink:href="#rect3703"
         inkscape:tiled-clone-of="#rect3703"
         y="0"
         x="0"
         style="" />
      <use
         id="use3841"
         transform="translate(69.849996,34.924998)"
         xlink:href="#rect3703"
         inkscape:tiled-clone-of="#rect3703"
         y="0"
         x="0"
         style="" />
      <use
         id="use3843"
         transform="translate(69.849996,52.387497)"
         xlink:href="#rect3703"
         inkscape:tiled-clone-of="#rect3703"
         y="0"
         x="0"
         style="" />
      <use
         id="use3845"
         transform="translate(69.849996,69.849996)"
         xlink:href="#rect3703"
         inkscape:tiled-clone-of="#rect3703"
         y="0"
         x="0"
         style="" />
      <use
         id="use3847"
         transform="translate(69.849996,87.312495)"
         xlink:href="#rect3703"
         inkscape:tiled-clone-of="#rect3703"
         y="0"
         x="0"
         style="" />
      <use
         id="use3849"
         transform="translate(87.312495)"
         xlink:href="#rect3703"
         inkscape:tiled-clone-of="#rect3703"
         y="0"
         x="0"
         style="" />
      <use
         id="use3851"
         transform="translate(87.312495,17.462499)"
         xlink:href="#rect3703"
         inkscape:tiled-clone-of="#rect3703"
         y="0"
         x="0"
         style="" />
      <use
         id="use3853"
         transform="translate(87.312495,34.924998)"
         xlink:href="#rect3703"
         inkscape:tiled-clone-of="#rect3703"
         y="0"
         x="0"
         style="" />
      <use
         id="use3855"
         transform="translate(87.312495,52.387497)"
         xlink:href="#rect3703"
         inkscape:tiled-clone-of="#rect3703"
         y="0"
         x="0"
         style="" />
      <use
         id="use3857"
         transform="translate(87.312495,69.849996)"
         xlink:href="#rect3703"
         inkscape:tiled-clone-of="#rect3703"
         y="0"
         x="0"
         style="" />
      <use
         id="use3859"
         transform="translate(87.312495,87.312495)"
         xlink:href="#rect3703"
         inkscape:tiled-clone-of="#rect3703"
         y="0"
         x="0"
         style="" />
      <use
         id="use3861"
         transform="translate(104.77499)"
         xlink:href="#rect3703"
         inkscape:tiled-clone-of="#rect3703"
         y="0"
         x="0"
         style="" />
      <use
         id="use3863"
         transform="translate(104.77499,17.462499)"
         xlink:href="#rect3703"
         inkscape:tiled-clone-of="#rect3703"
         y="0"
         x="0"
         style="" />
      <use
         id="use3865"
         transform="translate(104.77499,34.924998)"
         xlink:href="#rect3703"
         inkscape:tiled-clone-of="#rect3703"
         y="0"
         x="0"
         style="" />
      <use
         id="use3867"
         transform="translate(104.77499,52.387497)"
         xlink:href="#rect3703"
         inkscape:tiled-clone-of="#rect3703"
         y="0"
         x="0"
         style="" />
      <use
         id="use3869"
         transform="translate(104.77499,69.849996)"
         xlink:href="#rect3703"
         inkscape:tiled-clone-of="#rect3703"
         y="0"
         x="0"
         style="" />
      <use
         id="use3871"
         transform="translate(104.77499,87.312495)"
         xlink:href="#rect3703"
         inkscape:tiled-clone-of="#rect3703"
         y="0"
         x="0"
         style="" />
    </g>
    <g
       transform="matrix(0.15506826,0,0,0.15506826,26.682439,43.35409)"
       id="g41">
      <path
         d="M 62.089,601.57 8.551,564.94 30.691,619.28 0.5,602.78 33.106,643.44 5.33,630.96 c 0,0 16.076,29.143 30.191,35.826 8.7325,4.1348 19.465,2.0656 28.983,0.40254 14.264,-2.4923 26.28,-17.02 40.657,-15.297 10.642,1.2755 16.353,14.867 26.568,18.114 7.4178,2.3584 15.872,2.571 23.347,0.40254 5.8617,-1.7004 9.2978,-8.9384 15.297,-10.064 7.553,-1.4166 15.094,6.7226 22.542,4.8305 7.194,-1.8275 9.4889,-14.229 16.907,-14.492 9.682,-0.34223 14.043,14.609 23.347,17.309 5.2975,1.5374 11.365,0.79624 16.504,-1.2076 9.2544,-3.6084 13.678,-16.245 23.347,-18.517 4.4065,-1.0352 8.912,1.6449 13.284,2.8178 6.2704,1.6823 12.144,7.2752 18.517,6.0381 8.6014,-1.6696 11.855,-14.019 20.127,-16.907 4.6891,-1.6367 10.02,-0.55199 14.894,0.40255 15.335,3.0033 28.283,17.504 43.877,16.504 7.4278,-0.47626 12.399,-9.1508 19.725,-10.466 7.9943,-1.4352 16.254,1.3299 24.153,3.2203 10.648,2.5483 20.175,12.539 30.996,10.869 7.2936,-1.1256 10.35,-13.807 17.712,-13.284 7.9499,0.56498 9.8393,13.223 16.907,16.907 7.4924,3.9053 17.546,8.4843 24.958,4.428 8.2847,-4.5341 6.5723,-17.755 10.869,-26.165 5.0147,-9.8166 14.602,-17.492 17.309,-28.178 1.8155,-7.1645 -0.0693,-14.837 -1.2076,-22.14 -2.05,-13.152 -10.064,-38.644 -10.064,-38.644 l -0.40255,40.657 c 0,0 -11.945,-13.536 -15.297,-21.737 -3.4466,-8.4334 0.71082,-19.447 -4.428,-26.97 -14.252,-20.864 -65.212,-38.644 -65.212,-38.644 z"
         inkscape:connector-curvature="0"
         style="fill:#000000;stroke:#000000;stroke-width:1px"
         sodipodi:nodetypes="ccccccsssssssssssssssssssssssssccsscc"
         id="path3762" />
      <path
         d="M 64.292,150.37 C 51.338,143.99 106.86,145.24 111.01,131.01 115.7,114.88 80.981,108.3 85.617,103.25 142.52,41.214 289.487,-74.54 474.507,94.365 l 2.0811,31.91 15.261,19.424 15.261,53.415 -0.6937,130.42 -11.793,31.91 13.18,15.261 v 196.32"
         inkscape:connector-curvature="0"
         style="fill:none;stroke:#000000;stroke-width:13.10000038;stroke-linecap:square;stroke-miterlimit:36"
         sodipodi:nodetypes="csscccccccc"
         id="path3784" />
      <path
         d="M 56.051,634.98 46.39,321 l 31.801,-4.8305 -28.178,-17.309 0.40254,-99.831 c 0,0 7.7399,-21.539 8.8784,-22.678 1.1386,-1.1386 -1.4232,-25.618 -1.4232,-25.618 l 35.58,-3.131 -12.524,-39.565 c 171.51,-171.43 325.13,-80.088 389.95,-8.531 l 1.1386,28.179 17.078,17.078 15.94,52.658 -1.4232,130.93 -11.955,32.449 13.663,13.378 -1.7078,235.4 -29.887,29.887 z"
         inkscape:connector-curvature="0"
         style="fill:#e5e5e5;stroke:#000000;stroke-width:6;stroke-linejoin:bevel"
         sodipodi:nodetypes="cccccsccccccccccccc"
         id="path2987" />
      <path
         d="m 341.34,23.049 85.046,78.968 10.466,28.983 27.373,63.602 2.4152,145.72 -11.149,24.366 12.881,21.737 0.80509,252.8"
         inkscape:connector-curvature="0"
         style="fill:none;stroke:#000000;stroke-width:13.10000038"
         sodipodi:nodetypes="cccccccc"
         id="path3757" />
      <path
         d="m 323.87,15.308 c 0,0 -13.29,25.547 -28.706,32.769 -23.467,4.8068 -52.07,1.368 -79.703,2.4153 -10.247,0.38833 -24.753,-1.3276 -34.216,4.0254 -10.238,5.7917 -17.309,26.568 -17.309,26.568 0,0 14.408,-18.894 24.958,-22.945 12.277,-4.7137 39.449,0.40255 39.449,0.40255 l -27.373,30.593 c 0,0 -14.108,21.939 -18.517,22.945 -7.0256,1.6021 -30.134,-2.3642 -38.644,-2.8178 -9.5166,4.5782 -20.127,12.881 -20.127,12.881 l 26.568,-6.4407 16.907,5.6356 c 0,0 -15.86,14.784 -20.932,24.153 -4.6506,8.5904 -8.0508,28.178 -8.0508,28.178 0,0 8.6523,-19.896 14.492,-28.983 5.7776,-8.9911 20.127,-24.958 20.127,-24.958 0,0 10.134,0.5417 14.492,-1.6102 7.9988,-3.9497 18.517,-19.322 18.517,-19.322 0,0 1.4353,20.082 5.6356,28.983 5.939,12.585 26.568,32.203 26.568,32.203 l 4.8305,21.737 0.80509,-29.788 18.517,0.80508 -33.008,-12.076 c -12.047,-11.343 -16.114,-30.001 -15.297,-53.136 0,0 19.439,-6.9402 24.958,-16.504 1.8825,-3.2625 4.0254,-9.2585 4.0254,-9.2585 0,0 43.43,-0.40828 59.576,-4.8305 12.523,-8.8502 41.902,-36.914 41.902,-36.914 z"
         inkscape:connector-curvature="0"
         style="fill:#000000;stroke:#000000;stroke-width:1px"
         sodipodi:nodetypes="ccsscsccsccccscscscsccccccscccc"
         id="path3760" />
      <path
         d="m 155.11,201.75 c -13.795,0.10289 -26.906,1.4062 -26.906,1.4062 -29.184,-1.1043 -20.131,18.414 -9.8125,18.625 l 24.031,0.5 1.4687,65.719 c -0.5434,8.5095 12.459,20.575 18.156,6.375 l 1.9687,-26.469 c 19.102,4.7553 27.027,18.712 35.312,32.375 9.36,5.3627 19.337,11.718 17.656,-10.812 l -20.594,-28.438 c 15.961,-16.426 16.786,-49.853 -18.406,-57.625 -6.077,-1.342 -14.598,-1.718 -22.875,-1.6562 z m 16.344,21.219 c 5.644,-0.10487 11.911,5.1038 15.844,17.719 -9.3959,1.0292 -18.792,2.7249 -28.188,0 0.3741,-10.659 5.9472,-17.6 12.344,-17.719 z"
         inkscape:connector-curvature="0"
         style="fill:#000000"
         sodipodi:nodetypes="scccccccccsssccs"
         id="path3764" />
      <path
         d="m 260.39,205.6 c 9.2185,2.0748 12.584,14.034 16.432,27.96 l -0.4905,61.805 c -6.3767,2.759 -12.753,2.7906 -19.13,0 l 0.4905,-66.71 c -0.2581,-3.2318 -6.173,-7.0032 -6.1314,-14.47 0.016,-2.7964 2.6066,-9.9846 8.8293,-8.5841 z"
         inkscape:connector-curvature="0"
         style="fill:#000000"
         sodipodi:nodetypes="sccccss"
         id="path3766" />
      <path
         d="m 323.42,203.62 c -30.265,-0.31858 -20.446,22.48 -19.625,22.594 7.0287,0.97304 20.658,0.60806 20.625,0.96875 -2.0319,22.431 1.8967,53.691 2.4374,67.688 0.4135,10.701 18.302,13.106 19.125,4.4062 0.5348,-5.6552 0,-31.875 0,-31.875 l 19.625,-3.4375 c 28.906,-6.6551 26.723,-59.609 4.4063,-59.844 z m 22.5,20.969 c 32.063,-0.31964 27.86,23.789 -3.0938,25.125 -2.8508,-7.5382 -1.7604,-16.202 -0.094,-25.031 1.1102,-0.0627 2.1533,-0.0834 3.1876,-0.0937 z"
         inkscape:connector-curvature="0"
         style="fill:#000000"
         sodipodi:nodetypes="cccccccccsccs"
         id="path3768" />
      <path
         d="m 63.845,636.49 c 1.0406,-1.7342 20.117,-46.131 20.117,-46.131 l 4.1622,24.279 12.14,-9.3649 2.0811,31.563 z"
         inkscape:connector-curvature="0"
         style="fill:#000000;stroke:#000000;stroke-width:1px"
         id="path3776" />
      <path
         d="m 238.31,636.14 c 1.0406,-3.1216 11.099,-41.275 11.099,-41.275 l 9.0181,44.397 z"
         inkscape:connector-curvature="0"
         style="fill:#000000;stroke:#000000;stroke-width:1px"
         id="path3778" />
      <path
         d="m 312.86,636.63 40.717,-64.18 6.6352,51.346 20.83,-23.883 8.6538,19.778 12.479,3.1331 37.244,3.8706 26.241,-26.488 3.2593,39.976 z"
         inkscape:connector-curvature="0"
         style="fill:#000000;stroke:#000000;stroke-width:1px"
         sodipodi:nodetypes="cccccccccc"
         id="path3780" />
      <path
         d="m 167.21,642.39 10.484,-66.636 18.652,62.474 z"
         inkscape:connector-curvature="0"
         style="fill:#000000;stroke:#000000;stroke-width:1px"
         sodipodi:nodetypes="cccc"
         id="path3782" />
    </g>
  </g>
</svg>
