<?xml version="1.0" encoding="UTF-8" standalone="no"?>
<!-- Created with Inkscape (http://www.inkscape.org/) -->

<svg
   xmlns:dc="http://purl.org/dc/elements/1.1/"
   xmlns:cc="http://creativecommons.org/ns#"
   xmlns:rdf="http://www.w3.org/1999/02/22-rdf-syntax-ns#"
   xmlns:svg="http://www.w3.org/2000/svg"
   xmlns="http://www.w3.org/2000/svg"
   xmlns:xlink="http://www.w3.org/1999/xlink"
   xmlns:sodipodi="http://sodipodi.sourceforge.net/DTD/sodipodi-0.dtd"
   xmlns:inkscape="http://www.inkscape.org/namespaces/inkscape"
   width="210mm"
   height="297mm"
   viewBox="0 0 210 297"
   version="1.1"
   id="svg8"
   inkscape:version="0.92.2 5c3e80d, 2017-08-06"
   sodipodi:docname="src04_2.svg">
  <defs
     id="defs2" />
  <sodipodi:namedview
     id="base"
     pagecolor="#ffffff"
     bordercolor="#666666"
     borderopacity="1.0"
     inkscape:pageopacity="0.0"
     inkscape:pageshadow="2"
     inkscape:zoom="1.7122321"
     inkscape:cx="249.09005"
     inkscape:cy="746.89055"
     inkscape:document-units="mm"
     inkscape:current-layer="layer1"
     showgrid="true"
     inkscape:window-width="1920"
     inkscape:window-height="1020"
     inkscape:window-x="0"
     inkscape:window-y="27"
     inkscape:window-maximized="1">
    <inkscape:grid
       type="xygrid"
       id="grid10" />
  </sodipodi:namedview>
  <metadata
     id="metadata5">
    <rdf:RDF>
      <cc:Work
         rdf:about="">
        <dc:format>image/svg+xml</dc:format>
        <dc:type
           rdf:resource="http://purl.org/dc/dcmitype/StillImage" />
        <dc:title />
      </cc:Work>
    </rdf:RDF>
  </metadata>
  <g
     inkscape:label="Layer 1"
     inkscape:groupmode="layer"
     id="layer1">
    <g
       id="g3916"
       style=""
       inkscape:export-xdpi="96"
       inkscape:export-ydpi="96">
      <rect
         inkscape:tile-y0="42.867707"
         inkscape:tile-x0="9.1281251"
         inkscape:tile-h="17.462499"
         inkscape:tile-w="17.462499"
         inkscape:tile-cy="51.598957"
         inkscape:tile-cx="17.859375"
         y="43"
         x="9.260417"
         height="17.197916"
         width="17.197916"
         id="rect3703"
         style="fill:none;fill-opacity:1;" />
      <use
         id="use3789"
         xlink:href="#rect3703"
         inkscape:tiled-clone-of="#rect3703"
         y="0"
         x="0"
         style="" />
      <use
         id="use3791"
         transform="translate(0,17.462499)"
         xlink:href="#rect3703"
         inkscape:tiled-clone-of="#rect3703"
         y="0"
         x="0"
         style="" />
      <use
         id="use3793"
         transform="translate(0,34.924998)"
         xlink:href="#rect3703"
         inkscape:tiled-clone-of="#rect3703"
         y="0"
         x="0"
         style="" />
      <use
         id="use3795"
         transform="translate(0,52.387497)"
         xlink:href="#rect3703"
         inkscape:tiled-clone-of="#rect3703"
         y="0"
         x="0"
         style="" />
      <use
         id="use3797"
         transform="translate(0,69.849996)"
         xlink:href="#rect3703"
         inkscape:tiled-clone-of="#rect3703"
         y="0"
         x="0"
         style="" />
      <use
         id="use3799"
         transform="translate(0,87.312495)"
         xlink:href="#rect3703"
         inkscape:tiled-clone-of="#rect3703"
         y="0"
         x="0"
         style="" />
      <use
         id="use3801"
         transform="translate(17.462499)"
         xlink:href="#rect3703"
         inkscape:tiled-clone-of="#rect3703"
         y="0"
         x="0"
         style="" />
      <use
         id="use3803"
         transform="translate(17.462499,17.462499)"
         xlink:href="#rect3703"
         inkscape:tiled-clone-of="#rect3703"
         y="0"
         x="0"
         style="" />
      <use
         id="use3805"
         transform="translate(17.462499,34.924998)"
         xlink:href="#rect3703"
         inkscape:tiled-clone-of="#rect3703"
         y="0"
         x="0"
         style="" />
      <use
         id="use3807"
         transform="translate(17.462499,52.387497)"
         xlink:href="#rect3703"
         inkscape:tiled-clone-of="#rect3703"
         y="0"
         x="0"
         style="" />
      <use
         id="use3809"
         transform="translate(17.462499,69.849996)"
         xlink:href="#rect3703"
         inkscape:tiled-clone-of="#rect3703"
         y="0"
         x="0"
         style="" />
      <use
         id="use3811"
         transform="translate(17.462499,87.312495)"
         xlink:href="#rect3703"
         inkscape:tiled-clone-of="#rect3703"
         y="0"
         x="0"
         style="" />
      <use
         id="use3813"
         transform="translate(34.924998)"
         xlink:href="#rect3703"
         inkscape:tiled-clone-of="#rect3703"
         y="0"
         x="0"
         style="" />
      <use
         id="use3815"
         transform="translate(34.924998,17.462499)"
         xlink:href="#rect3703"
         inkscape:tiled-clone-of="#rect3703"
         y="0"
         x="0"
         style="" />
      <use
         id="use3817"
         transform="translate(34.924998,34.924998)"
         xlink:href="#rect3703"
         inkscape:tiled-clone-of="#rect3703"
         y="0"
         x="0"
         style="" />
      <use
         id="use3819"
         transform="translate(34.924998,52.387497)"
         xlink:href="#rect3703"
         inkscape:tiled-clone-of="#rect3703"
         y="0"
         x="0"
         style="" />
      <use
         id="use3821"
         transform="translate(34.924998,69.849996)"
         xlink:href="#rect3703"
         inkscape:tiled-clone-of="#rect3703"
         y="0"
         x="0"
         style="" />
      <use
         id="use3823"
         transform="translate(34.924998,87.312495)"
         xlink:href="#rect3703"
         inkscape:tiled-clone-of="#rect3703"
         y="0"
         x="0"
         style="" />
      <use
         id="use3825"
         transform="translate(52.387497)"
         xlink:href="#rect3703"
         inkscape:tiled-clone-of="#rect3703"
         y="0"
         x="0"
         style="" />
      <use
         id="use3827"
         transform="translate(52.387497,17.462499)"
         xlink:href="#rect3703"
         inkscape:tiled-clone-of="#rect3703"
         y="0"
         x="0"
         style="" />
      <use
         id="use3829"
         transform="translate(52.387497,34.924998)"
         xlink:href="#rect3703"
         inkscape:tiled-clone-of="#rect3703"
         y="0"
         x="0"
         style="" />
      <use
         id="use3831"
         transform="translate(52.387497,52.387497)"
         xlink:href="#rect3703"
         inkscape:tiled-clone-of="#rect3703"
         y="0"
         x="0"
         style="" />
      <use
         id="use3833"
         transform="translate(52.387497,69.849996)"
         xlink:href="#rect3703"
         inkscape:tiled-clone-of="#rect3703"
         y="0"
         x="0"
         style="" />
      <use
         id="use3835"
         transform="translate(52.387497,87.312495)"
         xlink:href="#rect3703"
         inkscape:tiled-clone-of="#rect3703"
         y="0"
         x="0"
         style="" />
      <use
         id="use3837"
         transform="translate(69.849996)"
         xlink:href="#rect3703"
         inkscape:tiled-clone-of="#rect3703"
         y="0"
         x="0"
         style="" />
      <use
         id="use3839"
         transform="translate(69.849996,17.462499)"
         xlink:href="#rect3703"
         inkscape:tiled-clone-of="#rect3703"
         y="0"
         x="0"
         style="" />
      <use
         id="use3841"
         transform="translate(69.849996,34.924998)"
         xlink:href="#rect3703"
         inkscape:tiled-clone-of="#rect3703"
         y="0"
         x="0"
         style="" />
      <use
         id="use3843"
         transform="translate(69.849996,52.387497)"
         xlink:href="#rect3703"
         inkscape:tiled-clone-of="#rect3703"
         y="0"
         x="0"
         style="" />
      <use
         id="use3845"
         transform="translate(69.849996,69.849996)"
         xlink:href="#rect3703"
         inkscape:tiled-clone-of="#rect3703"
         y="0"
         x="0"
         style="" />
      <use
         id="use3847"
         transform="translate(69.849996,87.312495)"
         xlink:href="#rect3703"
         inkscape:tiled-clone-of="#rect3703"
         y="0"
         x="0"
         style="" />
      <use
         id="use3849"
         transform="translate(87.312495)"
         xlink:href="#rect3703"
         inkscape:tiled-clone-of="#rect3703"
         y="0"
         x="0"
         style="" />
      <use
         id="use3851"
         transform="translate(87.312495,17.462499)"
         xlink:href="#rect3703"
         inkscape:tiled-clone-of="#rect3703"
         y="0"
         x="0"
         style="" />
      <use
         id="use3853"
         transform="translate(87.312495,34.924998)"
         xlink:href="#rect3703"
         inkscape:tiled-clone-of="#rect3703"
         y="0"
         x="0"
         style="" />
      <use
         id="use3855"
         transform="translate(87.312495,52.387497)"
         xlink:href="#rect3703"
         inkscape:tiled-clone-of="#rect3703"
         y="0"
         x="0"
         style="" />
      <use
         id="use3857"
         transform="translate(87.312495,69.849996)"
         xlink:href="#rect3703"
         inkscape:tiled-clone-of="#rect3703"
         y="0"
         x="0"
         style="" />
      <use
         id="use3859"
         transform="translate(87.312495,87.312495)"
         xlink:href="#rect3703"
         inkscape:tiled-clone-of="#rect3703"
         y="0"
         x="0"
         style="" />
      <use
         id="use3861"
         transform="translate(104.77499)"
         xlink:href="#rect3703"
         inkscape:tiled-clone-of="#rect3703"
         y="0"
         x="0"
         style="" />
      <use
         id="use3863"
         transform="translate(104.77499,17.462499)"
         xlink:href="#rect3703"
         inkscape:tiled-clone-of="#rect3703"
         y="0"
         x="0"
         style="" />
      <use
         id="use3865"
         transform="translate(104.77499,34.924998)"
         xlink:href="#rect3703"
         inkscape:tiled-clone-of="#rect3703"
         y="0"
         x="0"
         style="" />
      <use
         id="use3867"
         transform="translate(104.77499,52.387497)"
         xlink:href="#rect3703"
         inkscape:tiled-clone-of="#rect3703"
         y="0"
         x="0"
         style="" />
      <use
         id="use3869"
         transform="translate(104.77499,69.849996)"
         xlink:href="#rect3703"
         inkscape:tiled-clone-of="#rect3703"
         y="0"
         x="0"
         style="" />
      <use
         id="use3871"
         transform="translate(104.77499,87.312495)"
         xlink:href="#rect3703"
         inkscape:tiled-clone-of="#rect3703"
         y="0"
         x="0"
         style="" />
    </g>
    <g
       transform="matrix(0.20738539,0,0,0.20595673,-138.57334,50.773593)"
       id="g617">
      <path
         style="fill:#f7c024"
         inkscape:connector-curvature="0"
         id="path78"
         d="m 1184.894,206.347 -71.639,46.558 21.629,86.162 -78.572,-43.084 -26.519,73.388 -51.964,-81.516 -70.655,46.566 11.746,-100.209 -72.608,-62.824 79.457,-16.369 -19.578,-91.96 69.679,39.588 42.177,-88.479 35.329,100.097 81.508,-43.079 -27.504,93.241 z" />
      <path
         style="fill:#ab2430"
         inkscape:connector-curvature="0"
         id="path80"
         d="m 1284.748,334.225 -16.014,-2.748 0.718,-12.767 14.766,1.264 c 0.182,5.592 0.446,10.566 0.53,14.251" />
      <path
         style="fill:#343534"
         inkscape:connector-curvature="0"
         id="path82"
         d="m 1215.523,317.757 c 10.057,1.793 16.998,11.928 15.666,22.704 -1.332,10.876 -10.588,18.163 -20.555,16.362 -9.967,-1.794 -17.006,-11.928 -15.659,-22.803 1.331,-10.769 10.589,-18.065 20.548,-16.263" />
      <path
         style="fill:#6bc2bf"
         inkscape:connector-curvature="0"
         id="path84"
         d="m 1227.449,258.415 -59.977,-12.67 9.431,-58.494 c 0,0 38.62,7.288 42.274,8.022 3.649,0.636 8.272,63.142 8.272,63.142" />
      <path
         style="fill:#6bc2bf"
         inkscape:connector-curvature="0"
         id="path86"
         d="m 1122.002,177.435 c 2.052,-0.12 41.474,7.386 41.474,7.386 l -12.018,59.123 -44.228,-7.916 4.004,-16.045 -10.141,-2.959 c 3.912,-8.234 19.041,-39.49 20.909,-39.589" />
      <path
         style="fill:#343534"
         inkscape:connector-curvature="0"
         id="path88"
         d="m 1088.189,292.411 c 9.973,1.695 16.998,11.942 15.574,22.704 -1.339,10.777 -10.586,18.163 -20.562,16.362 -9.96,-1.792 -16.991,-12.033 -15.658,-22.802 1.423,-10.77 10.587,-18.05 20.646,-16.264" />
      <path
         style="fill:#ab2430"
         inkscape:connector-curvature="0"
         id="path90"
         d="m 1101.093,217.024 10.141,2.959 -4.004,16.045 -1.862,7.606 c 0,0 -16.029,-1.9 -17.974,-3.171 -1.869,-1.37 10.588,-24.278 10.588,-24.278 z" />
      <path
         style="fill:#d51f46"
         inkscape:connector-curvature="0"
         id="path92"
         d="m 1227.449,258.415 c 0,0 -4.623,-62.506 -8.272,-63.142 -3.654,-0.734 -42.274,-8.022 -42.274,-8.022 l -9.431,58.494 z m -108.647,-98.303 c 8.279,0.53 102.957,14.356 110.518,24.074 7.468,9.717 18.064,87.11 18.064,87.11 0,0 29.546,6.75 32.74,10.776 1.959,2.316 3.292,22.159 4.094,37.902 l -14.766,-1.264 -0.718,12.767 16.014,2.748 c 0.099,3.701 0.182,5.91 0.182,5.91 l -44.228,-5.797 c 0,0 -1.953,-20.593 -27.14,-25.566 -25.17,-4.949 -27.131,20.806 -27.131,20.806 l -75.371,-15.833 c 0,0 3.828,-27.458 -17.883,-33.368 -21.713,-5.812 -31.863,22.069 -31.863,22.069 l -49.472,-9.816 c 0,-0.106 -0.091,-0.431 -0.273,-0.856 0.273,-0.839 0.719,-2.315 1.249,-4.214 l 19.223,3.905 1.96,-7.077 4.541,-16.574 -17.709,-4.01 c 5.865,-16.159 13.614,-32.733 19.835,-31.682 11.753,2.105 35.782,6.335 35.782,6.335 0,0 34.072,-78.875 42.352,-78.345 m 44.674,24.709 c 0,0 -39.422,-7.506 -41.474,-7.386 -1.868,0.099 -16.997,31.355 -20.909,39.589 l -3.111,-0.839 c 0,0 -12.457,22.908 -10.588,24.278 1.945,1.271 17.974,3.171 17.974,3.171 l 1.862,-7.606 44.228,7.916 z" />
      <path
         style="fill:#cbcccb"
         inkscape:connector-curvature="0"
         id="path94"
         d="m 1038.542,267.814 -4.541,16.574 -18.693,-4.54 c 1.431,-4.753 3.3,-10.353 5.525,-16.044 z" />
      <path
         style="fill:#cbcccb"
         inkscape:connector-curvature="0"
         id="path96"
         d="m 1012.915,287.347 c 0.614,-2.006 1.416,-4.541 2.393,-7.499 l 18.693,4.54 -1.96,7.077 -19.223,-3.905 c 0.097,0 0.097,-0.106 0.097,-0.213" />
      <path
         style="fill:#cbcccb"
         inkscape:connector-curvature="0"
         id="path98"
         d="m 1010.238,287.03 c 0.09,0.317 0.181,0.628 0.271,0.84 l -19.223,3.799 -1.869,-6.963 18.596,-4.541 c 0.892,2.641 1.603,4.966 2.225,6.865" />
      <path
         style="fill:#cbcccb"
         inkscape:connector-curvature="0"
         id="path100"
         d="m 1008.013,280.165 -18.596,4.541 -4.533,-16.68 17.701,-4.01 c 2.051,5.698 4.012,11.396 5.428,16.149" />
      <path
         style="fill:#343534"
         inkscape:connector-curvature="0"
         id="path102"
         d="m 935.228,292.63 c 9.961,-1.802 19.224,5.487 20.556,16.361 1.332,10.772 -5.609,20.912 -15.666,22.705 -9.96,1.795 -19.222,-5.494 -20.546,-16.262 -1.349,-10.876 5.599,-21.018 15.656,-22.804" />
      <path
         style="fill:#007ab5"
         inkscape:connector-curvature="0"
         id="path104"
         d="m 916.181,236.347 -4.095,-16.151 10.149,-2.969 3.118,-0.838 c 0,0 12.457,22.909 10.58,24.286 -1.953,1.263 -17.875,3.163 -17.875,3.163 z" />
      <path
         style="fill:#6bc2bf"
         inkscape:connector-curvature="0"
         id="path106"
         d="m 901.324,177.746 c 1.87,0.098 16.998,31.256 20.911,39.481 l -10.149,2.969 4.095,16.151 -44.305,7.817 -12.017,-59.031 c 0,0 39.421,-7.493 41.465,-7.387" />
      <path
         style="fill:#6bc2bf"
         inkscape:connector-curvature="0"
         id="path108"
         d="m 846.425,187.456 9.514,58.494 -59.971,12.677 c 0,0 4.541,-62.514 8.189,-63.149 3.639,-0.628 42.268,-8.022 42.268,-8.022" />
      <path
         style="fill:#343534"
         inkscape:connector-curvature="0"
         id="path110"
         d="m 807.796,317.976 c 9.976,-1.801 19.224,5.584 20.563,16.362 1.333,10.762 -5.6,21.009 -15.659,22.697 -9.974,1.793 -19.138,-5.487 -20.562,-16.265 -1.331,-10.867 5.699,-21.007 15.658,-22.794" />
      <path
         style="fill:#005c87"
         inkscape:connector-curvature="0"
         id="path112"
         d="m 855.939,245.95 -9.514,-58.494 c 0,0 -38.629,7.394 -42.268,8.022 -3.648,0.635 -8.189,63.149 -8.189,63.149 z m 48.586,-85.634 c 8.273,-0.417 42.359,78.353 42.359,78.353 0,0 24.029,-4.224 35.865,-6.334 6.138,-1.06 13.872,15.514 19.836,31.681 l -17.701,4.01 4.533,16.68 1.869,6.963 19.223,-3.799 c 0.53,1.802 0.893,3.065 1.06,3.904 -0.083,0.425 -0.167,0.75 -0.167,0.75 l 0.44,0.106 c 0.09,0.099 0.09,0.204 0.09,0.204 l -49.92,9.823 c 0,0 -10.141,-27.766 -31.854,-21.97 -21.712,5.813 -17.891,33.262 -17.891,33.262 l -75.28,15.848 c 0,0 -2.043,-25.77 -27.23,-20.806 -25.187,4.958 -27.14,25.559 -27.14,25.559 l -44.137,5.911 c 0,0 0.092,-2.218 0.181,-5.911 l 15.924,-2.854 -0.712,-12.782 -14.682,1.377 c 0.802,-15.733 2.142,-35.585 4.005,-38.014 3.208,-4.011 32.747,-10.664 32.747,-10.664 0,0 10.587,-77.399 18.156,-87.215 7.476,-9.717 102.238,-23.552 110.426,-24.082 m 17.71,56.911 c -3.913,-8.225 -19.041,-39.383 -20.911,-39.481 -2.044,-0.106 -41.465,7.387 -41.465,7.387 l 12.017,59.031 44.305,-7.817 1.877,7.491 c 0,0 15.922,-1.9 17.875,-3.163 1.877,-1.377 -10.58,-24.286 -10.58,-24.286 z" />
      <path
         style="fill:#d51f46"
         inkscape:connector-curvature="0"
         id="path114"
         d="m 753.873,318.914 0.712,12.782 -15.924,2.854 c 0.091,-3.701 0.35,-8.658 0.529,-14.259 z" />
    </g>
  </g>
</svg>
